<?xml version="1.0" encoding="UTF-8" standalone="no"?><svg xmlns="http://www.w3.org/2000/svg" xmlns:xlink="http://www.w3.org/1999/xlink" contentScriptType="application/ecmascript" contentStyleType="text/css" height="2019px" preserveAspectRatio="none" style="width:645px;height:2019px;" version="1.1" viewBox="0 0 645 2019" width="645px" zoomAndPan="magnify"><defs><filter height="300%" id="ffg2r8no6tvxm" width="300%" x="-1" y="-1"><feGaussianBlur result="blurOut" stdDeviation="2.0"/><feColorMatrix in="blurOut" result="blurOut2" type="matrix" values="0 0 0 0 0 0 0 0 0 0 0 0 0 0 0 0 0 0 .4 0"/><feOffset dx="4.0" dy="4.0" in="blurOut2" result="blurOut3"/><feBlend in="SourceGraphic" in2="blurOut3" mode="normal"/></filter></defs><g><text fill="#000000" font-family="sans-serif" font-size="18" lengthAdjust="spacing" textLength="227" x="208.4688" y="27.4023">SET 和 GET 方法对比流程图</text><ellipse cx="185.9375" cy="41.1992" fill="#000000" filter="url(#ffg2r8no6tvxm)" rx="10" ry="10" style="stroke:none;stroke-width:1.0;"/><rect fill="#E1F5FF" filter="url(#ffg2r8no6tvxm)" height="970.915" style="stroke:#000000;stroke-width:2.0;" width="531" x="11" y="61.1992"/><path d="M176,61.1992 L176,70.6875 L166,80.6875 L11,80.6875 " fill="none" style="stroke:#000000;stroke-width:2.0;"/><text fill="#000000" font-family="sans-serif" font-size="14" lengthAdjust="spacing" textLength="155" x="14" y="75.7344">SET 方法流程 (设置命令)</text><rect fill="#F5F5F5" filter="url(#ffg2r8no6tvxm)" height="45.9102" rx="12.5" ry="12.5" style="stroke:#333333;stroke-width:1.5;" width="89" x="141.4375" y="97.6875"/><text fill="#000000" font-family="sans-serif" font-size="11" lengthAdjust="spacing" textLength="69" x="151.4375" y="118.3223">调用 SET 方法</text><text fill="#000000" font-family="sans-serif" font-size="11" lengthAdjust="spacing" textLength="60" x="151.4375" y="131.2773">set_xxx(...)</text><rect fill="#F5F5F5" filter="url(#ffg2r8no6tvxm)" height="45.9102" rx="12.5" ry="12.5" style="stroke:#333333;stroke-width:1.5;" width="193" x="89.4375" y="163.5977"/><text fill="#000000" font-family="sans-serif" font-size="11" lengthAdjust="spacing" textLength="44" x="99.4375" y="184.2324">发送命令</text><text fill="#000000" font-family="sans-serif" font-size="11" lengthAdjust="spacing" textLength="173" x="99.4375" y="197.1875">_send_packet(CMD_SET_XXX, ...)</text><rect fill="#F5F5F5" filter="url(#ffg2r8no6tvxm)" height="32.9551" rx="12.5" ry="12.5" style="stroke:#333333;stroke-width:1.5;" width="207" x="82.4375" y="229.5078"/><text fill="#000000" font-family="sans-serif" font-size="11" lengthAdjust="spacing" textLength="187" x="92.4375" y="250.1426">调用 _wait_for_ack_with_recovery()</text><rect fill="#FFFFFF" filter="url(#ffg2r8no6tvxm)" height="630.6963" style="stroke:#000000;stroke-width:2.0;" width="511" x="21" y="272.4629"/><path d="M224,272.4629 L224,281.9512 L214,291.9512 L21,291.9512 " fill="none" style="stroke:#000000;stroke-width:2.0;"/><text fill="#000000" font-family="sans-serif" font-size="14" lengthAdjust="spacing" textLength="193" x="24" y="286.998">_wait_for_ack_with_recovery</text><polygon fill="#FEFECE" filter="url(#ffg2r8no6tvxm)" points="155.4375,308.9512,216.4375,308.9512,228.4375,320.9512,216.4375,332.9512,155.4375,332.9512,143.4375,320.9512,155.4375,308.9512" style="stroke:#A80036;stroke-width:1.5;"/><text fill="#000000" font-family="sans-serif" font-size="11" lengthAdjust="spacing" textLength="61" x="155.4375" y="325.1084">ACK已到达?</text><text fill="#000000" font-family="sans-serif" font-size="11" lengthAdjust="spacing" textLength="11" x="132.4375" y="318.6309">是</text><text fill="#000000" font-family="sans-serif" font-size="11" lengthAdjust="spacing" textLength="11" x="228.4375" y="318.6309">否</text><rect fill="#F5F5F5" filter="url(#ffg2r8no6tvxm)" height="32.9551" rx="12.5" ry="12.5" style="stroke:#333333;stroke-width:1.5;" width="97" x="33" y="342.9512"/><text fill="#000000" font-family="sans-serif" font-size="11" lengthAdjust="spacing" textLength="77" x="43" y="363.5859">清除并返回成功</text><rect fill="#F5F5F5" filter="url(#ffg2r8no6tvxm)" height="32.9551" rx="12.5" ry="12.5" style="stroke:#333333;stroke-width:1.5;" width="64" x="258.375" y="342.9512"/><text fill="#000000" font-family="sans-serif" font-size="11" lengthAdjust="spacing" textLength="44" x="268.375" y="363.5859">清除事件</text><rect fill="#F5F5F5" filter="url(#ffg2r8no6tvxm)" height="32.9551" rx="12.5" ry="12.5" style="stroke:#333333;stroke-width:1.5;" width="87" x="246.875" y="395.9063"/><text fill="#000000" font-family="sans-serif" font-size="11" lengthAdjust="spacing" textLength="67" x="256.875" y="416.541">等待 0.001秒</text><polygon fill="#FEFECE" filter="url(#ffg2r8no6tvxm)" points="265.375,448.8613,315.375,448.8613,327.375,460.8613,315.375,472.8613,265.375,472.8613,253.375,460.8613,265.375,448.8613" style="stroke:#A80036;stroke-width:1.5;"/><text fill="#000000" font-family="sans-serif" font-size="11" lengthAdjust="spacing" textLength="50" x="265.375" y="465.0186">残留ACK?</text><text fill="#000000" font-family="sans-serif" font-size="11" lengthAdjust="spacing" textLength="11" x="242.375" y="458.541">是</text><text fill="#000000" font-family="sans-serif" font-size="11" lengthAdjust="spacing" textLength="11" x="327.375" y="458.541">否</text><rect fill="#F5F5F5" filter="url(#ffg2r8no6tvxm)" height="32.9551" rx="12.5" ry="12.5" style="stroke:#333333;stroke-width:1.5;" width="97" x="160" y="482.8613"/><text fill="#000000" font-family="sans-serif" font-size="11" lengthAdjust="spacing" textLength="77" x="170" y="503.4961">清除并返回成功</text><rect fill="#F5F5F5" filter="url(#ffg2r8no6tvxm)" height="32.9551" rx="12.5" ry="12.5" style="stroke:#333333;stroke-width:1.5;" width="76" x="334.25" y="482.8613"/><text fill="#000000" font-family="sans-serif" font-size="11" lengthAdjust="spacing" textLength="56" x="344.25" y="503.4961">等待新ACK</text><polygon fill="#FEFECE" filter="url(#ffg2r8no6tvxm)" points="347.25,535.8164,397.25,535.8164,409.25,547.8164,397.25,559.8164,347.25,559.8164,335.25,547.8164,347.25,535.8164" style="stroke:#A80036;stroke-width:1.5;"/><text fill="#000000" font-family="sans-serif" font-size="11" lengthAdjust="spacing" textLength="50" x="347.25" y="551.9736">收到ACK?</text><text fill="#000000" font-family="sans-serif" font-size="11" lengthAdjust="spacing" textLength="11" x="324.25" y="545.4961">是</text><text fill="#000000" font-family="sans-serif" font-size="11" lengthAdjust="spacing" textLength="11" x="409.25" y="545.4961">否</text><rect fill="#F5F5F5" filter="url(#ffg2r8no6tvxm)" height="32.9551" rx="12.5" ry="12.5" style="stroke:#333333;stroke-width:1.5;" width="64" x="287" y="569.8164"/><text fill="#000000" font-family="sans-serif" font-size="11" lengthAdjust="spacing" textLength="44" x="297" y="590.4512">返回成功</text><rect fill="#F5F5F5" filter="url(#ffg2r8no6tvxm)" height="32.9551" rx="12.5" ry="12.5" style="stroke:#333333;stroke-width:1.5;" width="82" x="384.5" y="569.8164"/><text fill="#000000" font-family="sans-serif" font-size="11" lengthAdjust="spacing" textLength="62" x="394.5" y="590.4512">失败计数++</text><rect fill="#F5F5F5" filter="url(#ffg2r8no6tvxm)" height="32.9551" rx="12.5" ry="12.5" style="stroke:#333333;stroke-width:1.5;" width="89" x="381" y="671.249"/><text fill="#000000" font-family="sans-serif" font-size="11" lengthAdjust="spacing" textLength="69" x="391" y="691.8838">触发MCU恢复</text><polygon fill="#FEFECE" filter="url(#ffg2r8no6tvxm)" points="388.5,622.7715,462.5,622.7715,474.5,634.7715,462.5,646.7715,388.5,646.7715,376.5,634.7715,388.5,622.7715" style="stroke:#A80036;stroke-width:1.5;"/><text fill="#000000" font-family="sans-serif" font-size="11" lengthAdjust="spacing" textLength="11" x="429.5" y="657.4063">是</text><text fill="#000000" font-family="sans-serif" font-size="11" lengthAdjust="spacing" textLength="74" x="388.5" y="638.9287">连续失败&gt;=5?</text><polygon fill="#FEFECE" filter="url(#ffg2r8no6tvxm)" points="425.5,724.2041,437.5,736.2041,425.5,748.2041,413.5,736.2041,425.5,724.2041" style="stroke:#A80036;stroke-width:1.5;"/><rect fill="#F5F5F5" filter="url(#ffg2r8no6tvxm)" height="32.9551" rx="12.5" ry="12.5" style="stroke:#333333;stroke-width:1.5;" width="64" x="393.5" y="768.2041"/><text fill="#000000" font-family="sans-serif" font-size="11" lengthAdjust="spacing" textLength="44" x="403.5" y="788.8389">返回失败</text><polygon fill="#FEFECE" filter="url(#ffg2r8no6tvxm)" points="372.25,807.1592,384.25,819.1592,372.25,831.1592,360.25,819.1592,372.25,807.1592" style="stroke:#A80036;stroke-width:1.5;"/><polygon fill="#FEFECE" filter="url(#ffg2r8no6tvxm)" points="290.375,837.1592,302.375,849.1592,290.375,861.1592,278.375,849.1592,290.375,837.1592" style="stroke:#A80036;stroke-width:1.5;"/><polygon fill="#FEFECE" filter="url(#ffg2r8no6tvxm)" points="185.9375,867.1592,197.9375,879.1592,185.9375,891.1592,173.9375,879.1592,185.9375,867.1592" style="stroke:#A80036;stroke-width:1.5;"/><polygon fill="#FEFECE" filter="url(#ffg2r8no6tvxm)" points="172.4375,923.1592,199.4375,923.1592,211.4375,935.1592,199.4375,947.1592,172.4375,947.1592,160.4375,935.1592,172.4375,923.1592" style="stroke:#A80036;stroke-width:1.5;"/><text fill="#000000" font-family="sans-serif" font-size="11" lengthAdjust="spacing" textLength="27" x="172.4375" y="939.3164">成功?</text><text fill="#000000" font-family="sans-serif" font-size="11" lengthAdjust="spacing" textLength="11" x="149.4375" y="932.8389">是</text><text fill="#000000" font-family="sans-serif" font-size="11" lengthAdjust="spacing" textLength="11" x="211.4375" y="932.8389">否</text><rect fill="#F5F5F5" filter="url(#ffg2r8no6tvxm)" height="32.9551" rx="12.5" ry="12.5" style="stroke:#333333;stroke-width:1.5;" width="70" x="105.4375" y="957.1592"/><text fill="#000000" font-family="sans-serif" font-size="11" lengthAdjust="spacing" textLength="50" x="115.4375" y="977.7939">返回 True</text><rect fill="#F5F5F5" filter="url(#ffg2r8no6tvxm)" height="32.9551" rx="12.5" ry="12.5" style="stroke:#333333;stroke-width:1.5;" width="72" x="195.4375" y="957.1592"/><text fill="#000000" font-family="sans-serif" font-size="11" lengthAdjust="spacing" textLength="52" x="205.4375" y="977.7939">返回 False</text><polygon fill="#FEFECE" filter="url(#ffg2r8no6tvxm)" points="185.9375,996.1143,197.9375,1008.1143,185.9375,1020.1143,173.9375,1008.1143,185.9375,996.1143" style="stroke:#A80036;stroke-width:1.5;"/><rect fill="#E8F5E9" filter="url(#ffg2r8no6tvxm)" height="514.9941" style="stroke:#000000;stroke-width:2.0;" width="252" x="48.4375" y="1042.1143"/><path d="M215.4375,1042.1143 L215.4375,1051.6025 L205.4375,1061.6025 L48.4375,1061.6025 " fill="none" style="stroke:#000000;stroke-width:2.0;"/><text fill="#000000" font-family="sans-serif" font-size="14" lengthAdjust="spacing" textLength="157" x="51.4375" y="1056.6494">GET 方法流程 (查询命令)</text><rect fill="#F5F5F5" filter="url(#ffg2r8no6tvxm)" height="45.9102" rx="12.5" ry="12.5" style="stroke:#333333;stroke-width:1.5;" width="91" x="140.4375" y="1078.6025"/><text fill="#000000" font-family="sans-serif" font-size="11" lengthAdjust="spacing" textLength="71" x="150.4375" y="1099.2373">调用 GET 方法</text><text fill="#000000" font-family="sans-serif" font-size="11" lengthAdjust="spacing" textLength="61" x="150.4375" y="1112.1924">get_xxx(...)</text><rect fill="#F5F5F5" filter="url(#ffg2r8no6tvxm)" height="32.9551" rx="12.5" ry="12.5" style="stroke:#333333;stroke-width:1.5;" width="98" x="136.9375" y="1144.5127"/><text fill="#000000" font-family="sans-serif" font-size="11" lengthAdjust="spacing" textLength="78" x="146.9375" y="1165.1475">获取 ack_event</text><rect fill="#F5F5F5" filter="url(#ffg2r8no6tvxm)" height="45.9102" rx="12.5" ry="12.5" style="stroke:#333333;stroke-width:1.5;" width="110" x="130.9375" y="1197.4678"/><text fill="#000000" font-family="sans-serif" font-size="11" lengthAdjust="spacing" textLength="44" x="140.9375" y="1218.1025">清除事件</text><text fill="#000000" font-family="sans-serif" font-size="11" lengthAdjust="spacing" textLength="90" x="140.9375" y="1231.0576">ack_event.clear()</text><rect fill="#F5F5F5" filter="url(#ffg2r8no6tvxm)" height="45.9102" rx="12.5" ry="12.5" style="stroke:#333333;stroke-width:1.5;" width="195" x="88.4375" y="1263.3779"/><text fill="#000000" font-family="sans-serif" font-size="11" lengthAdjust="spacing" textLength="44" x="98.4375" y="1284.0127">发送命令</text><text fill="#000000" font-family="sans-serif" font-size="11" lengthAdjust="spacing" textLength="175" x="98.4375" y="1296.9678">_send_packet(CMD_GET_XXX, ...)</text><rect fill="#F5F5F5" filter="url(#ffg2r8no6tvxm)" height="45.9102" rx="12.5" ry="12.5" style="stroke:#333333;stroke-width:1.5;" width="146" x="112.9375" y="1329.2881"/><text fill="#000000" font-family="sans-serif" font-size="11" lengthAdjust="spacing" textLength="48" x="122.9375" y="1349.9229">等待 ACK</text><text fill="#000000" font-family="sans-serif" font-size="11" lengthAdjust="spacing" textLength="126" x="122.9375" y="1362.8779">ack_event.wait(timeout)</text><polygon fill="#FEFECE" filter="url(#ffg2r8no6tvxm)" points="160.9375,1395.1982,210.9375,1395.1982,222.9375,1407.1982,210.9375,1419.1982,160.9375,1419.1982,148.9375,1407.1982,160.9375,1395.1982" style="stroke:#A80036;stroke-width:1.5;"/><text fill="#000000" font-family="sans-serif" font-size="11" lengthAdjust="spacing" textLength="50" x="160.9375" y="1411.3555">收到ACK?</text><text fill="#000000" font-family="sans-serif" font-size="11" lengthAdjust="spacing" textLength="11" x="137.9375" y="1404.8779">是</text><text fill="#000000" font-family="sans-serif" font-size="11" lengthAdjust="spacing" textLength="11" x="222.9375" y="1404.8779">否</text><rect fill="#F5F5F5" filter="url(#ffg2r8no6tvxm)" height="32.9551" rx="12.5" ry="12.5" style="stroke:#333333;stroke-width:1.5;" width="119" x="68.4375" y="1429.1982"/><text fill="#000000" font-family="sans-serif" font-size="11" lengthAdjust="spacing" textLength="99" x="78.4375" y="1449.833">从缓存字典读取数据</text><rect fill="#F5F5F5" filter="url(#ffg2r8no6tvxm)" height="32.9551" rx="12.5" ry="12.5" style="stroke:#333333;stroke-width:1.5;" width="64" x="95.9375" y="1482.1533"/><text fill="#000000" font-family="sans-serif" font-size="11" lengthAdjust="spacing" textLength="44" x="105.9375" y="1502.7881">返回数据</text><rect fill="#F5F5F5" filter="url(#ffg2r8no6tvxm)" height="32.9551" rx="12.5" ry="12.5" style="stroke:#333333;stroke-width:1.5;" width="73" x="207.4375" y="1429.1982"/><text fill="#000000" font-family="sans-serif" font-size="11" lengthAdjust="spacing" textLength="53" x="217.4375" y="1449.833">返回 None</text><polygon fill="#FEFECE" filter="url(#ffg2r8no6tvxm)" points="185.9375,1521.1084,197.9375,1533.1084,185.9375,1545.1084,173.9375,1533.1084,185.9375,1521.1084" style="stroke:#A80036;stroke-width:1.5;"/><rect fill="#FFF3E0" filter="url(#ffg2r8no6tvxm)" height="359.1953" style="stroke:#000000;stroke-width:2.0;" width="315.5" x="98.4375" y="1567.1084"/><path d="M311.4375,1567.1084 L311.4375,1576.5967 L301.4375,1586.5967 L98.4375,1586.5967 " fill="none" style="stroke:#000000;stroke-width:2.0;"/><text fill="#000000" font-family="sans-serif" font-size="14" lengthAdjust="spacing" textLength="203" x="101.4375" y="1581.6436">后台数据接收 (_uart_recv_task)</text><rect fill="#F5F5F5" filter="url(#ffg2r8no6tvxm)" height="32.9551" rx="12.5" ry="12.5" style="stroke:#333333;stroke-width:1.5;" width="86" x="142.9375" y="1603.5967"/><text fill="#000000" font-family="sans-serif" font-size="11" lengthAdjust="spacing" textLength="66" x="152.9375" y="1624.2314">持续监听串口</text><rect fill="#F5F5F5" filter="url(#ffg2r8no6tvxm)" height="32.9551" rx="12.5" ry="12.5" style="stroke:#333333;stroke-width:1.5;" width="75" x="148.4375" y="1656.5518"/><text fill="#000000" font-family="sans-serif" font-size="11" lengthAdjust="spacing" textLength="55" x="158.4375" y="1677.1865">接收数据包</text><rect fill="#F5F5F5" filter="url(#ffg2r8no6tvxm)" height="32.9551" rx="12.5" ry="12.5" style="stroke:#333333;stroke-width:1.5;" width="75" x="148.4375" y="1709.5068"/><text fill="#000000" font-family="sans-serif" font-size="11" lengthAdjust="spacing" textLength="55" x="158.4375" y="1730.1416">解析协议帧</text><rect fill="#F5F5F5" filter="url(#ffg2r8no6tvxm)" height="32.9551" rx="12.5" ry="12.5" style="stroke:#333333;stroke-width:1.5;" width="155" x="108.4375" y="1762.4619"/><text fill="#000000" font-family="sans-serif" font-size="11" lengthAdjust="spacing" textLength="135" x="118.4375" y="1783.0967">调用对应的 _handle_xxx()</text><rect fill="#F5F5F5" filter="url(#ffg2r8no6tvxm)" height="32.9551" rx="12.5" ry="12.5" style="stroke:#333333;stroke-width:1.5;" width="86" x="142.9375" y="1815.417"/><text fill="#000000" font-family="sans-serif" font-size="11" lengthAdjust="spacing" textLength="66" x="152.9375" y="1836.0518">更新缓存字典</text><path d="M254.9375,1858.3721 L254.9375,1882.3379 L234.9375,1886.3379 L254.9375,1890.3379 L254.9375,1914.3037 A0,0 0 0 0 254.9375,1914.3037 L403.9375,1914.3037 A0,0 0 0 0 403.9375,1914.3037 L403.9375,1868.3721 L393.9375,1858.3721 L254.9375,1858.3721 A0,0 0 0 0 254.9375,1858.3721 " fill="#FFF9C4" filter="url(#ffg2r8no6tvxm)" style="stroke:#FFC107;stroke-width:1.0;"/><path d="M393.9375,1858.3721 L393.9375,1868.3721 L403.9375,1868.3721 L393.9375,1858.3721 " fill="#FFF9C4" style="stroke:#FFC107;stroke-width:1.0;"/><text fill="#000000" font-family="sans-serif" font-size="13" lengthAdjust="spacing" textLength="104" x="260.9375" y="1875.9404">后台线程持续运行</text><text fill="#000000" font-family="sans-serif" font-size="13" lengthAdjust="spacing" textLength="128" x="260.9375" y="1891.251">接收 MCU 返回的数据</text><text fill="#000000" font-family="sans-serif" font-size="13" lengthAdjust="spacing" textLength="104" x="260.9375" y="1906.5615">并更新到缓存字典</text><rect fill="#F5F5F5" filter="url(#ffg2r8no6tvxm)" height="32.9551" rx="12.5" ry="12.5" style="stroke:#333333;stroke-width:1.5;" width="98" x="136.9375" y="1869.8604"/><text fill="#000000" font-family="sans-serif" font-size="11" lengthAdjust="spacing" textLength="78" x="146.9375" y="1890.4951">设置 ack_event</text><path d="M216.9375,1936.3037 L216.9375,1967.9248 L196.9375,1971.9248 L216.9375,1975.9248 L216.9375,2007.5459 A0,0 0 0 0 216.9375,2007.5459 L633.9375,2007.5459 A0,0 0 0 0 633.9375,2007.5459 L633.9375,1946.3037 L623.9375,1936.3037 L216.9375,1936.3037 A0,0 0 0 0 216.9375,1936.3037 " fill="#FFF9C4" filter="url(#ffg2r8no6tvxm)" style="stroke:#FFC107;stroke-width:1.0;"/><path d="M623.9375,1936.3037 L623.9375,1946.3037 L633.9375,1946.3037 L623.9375,1936.3037 " fill="#FFF9C4" style="stroke:#FFC107;stroke-width:1.0;"/><text fill="#000000" font-family="sans-serif" font-size="13" font-weight="bold" lengthAdjust="spacing" textLength="55" x="222.9375" y="1953.8721">关键区别:</text><text fill="#000000" font-family="sans-serif" font-size="13" lengthAdjust="spacing" textLength="396" x="222.9375" y="1969.1826">1. SET 方法使用 _wait_for_ack_with_recovery，包含错误恢复机制</text><text fill="#000000" font-family="sans-serif" font-size="13" lengthAdjust="spacing" textLength="295" x="222.9375" y="1984.4932">2. GET 方法先清除事件再发送，确保等待新的 ACK</text><text fill="#000000" font-family="sans-serif" font-size="13" lengthAdjust="spacing" textLength="369" x="222.9375" y="1999.8037">3. 数据由后台线程接收并更新到缓存字典，GET 方法从缓存读取</text><ellipse cx="185.9375" cy="1971.9248" fill="#FFFFFF" filter="url(#ffg2r8no6tvxm)" rx="11" ry="11" style="stroke:#000000;stroke-width:1.0;"/><ellipse cx="185.9375" cy="1971.9248" fill="#000000" rx="6" ry="6" style="stroke:#7F7F7F;stroke-width:1.0;"/><line style="stroke:#A80036;stroke-width:1.5;" x1="185.9375" x2="185.9375" y1="143.5977" y2="163.5977"/><polygon fill="#A80036" points="181.9375,153.5977,185.9375,163.5977,189.9375,153.5977,185.9375,157.5977" style="stroke:#A80036;stroke-width:1.0;"/><line style="stroke:#A80036;stroke-width:1.5;" x1="185.9375" x2="185.9375" y1="209.5078" y2="229.5078"/><polygon fill="#A80036" points="181.9375,219.5078,185.9375,229.5078,189.9375,219.5078,185.9375,223.5078" style="stroke:#A80036;stroke-width:1.0;"/><line style="stroke:#A80036;stroke-width:1.5;" x1="290.375" x2="290.375" y1="375.9063" y2="395.9063"/><polygon fill="#A80036" points="286.375,385.9063,290.375,395.9063,294.375,385.9063,290.375,389.9063" style="stroke:#A80036;stroke-width:1.0;"/><line style="stroke:#A80036;stroke-width:1.5;" x1="425.5" x2="425.5" y1="646.7715" y2="671.249"/><polygon fill="#A80036" points="421.5,661.249,425.5,671.249,429.5,661.249,425.5,665.249" style="stroke:#A80036;stroke-width:1.0;"/><line style="stroke:#A80036;stroke-width:1.5;" x1="474.5" x2="486.5" y1="634.7715" y2="634.7715"/><polygon fill="#A80036" points="482.5,677.7266,486.5,687.7266,490.5,677.7266,486.5,681.7266" style="stroke:#A80036;stroke-width:1.5;"/><line style="stroke:#A80036;stroke-width:1.5;" x1="486.5" x2="486.5" y1="634.7715" y2="736.2041"/><line style="stroke:#A80036;stroke-width:1.5;" x1="486.5" x2="437.5" y1="736.2041" y2="736.2041"/><polygon fill="#A80036" points="447.5,732.2041,437.5,736.2041,447.5,740.2041,443.5,736.2041" style="stroke:#A80036;stroke-width:1.0;"/><line style="stroke:#A80036;stroke-width:1.5;" x1="425.5" x2="425.5" y1="704.2041" y2="724.2041"/><polygon fill="#A80036" points="421.5,714.2041,425.5,724.2041,429.5,714.2041,425.5,718.2041" style="stroke:#A80036;stroke-width:1.0;"/><line style="stroke:#A80036;stroke-width:1.5;" x1="425.5" x2="425.5" y1="602.7715" y2="622.7715"/><polygon fill="#A80036" points="421.5,612.7715,425.5,622.7715,429.5,612.7715,425.5,616.7715" style="stroke:#A80036;stroke-width:1.0;"/><line style="stroke:#A80036;stroke-width:1.5;" x1="425.5" x2="425.5" y1="748.2041" y2="768.2041"/><polygon fill="#A80036" points="421.5,758.2041,425.5,768.2041,429.5,758.2041,425.5,762.2041" style="stroke:#A80036;stroke-width:1.0;"/><line style="stroke:#A80036;stroke-width:1.5;" x1="335.25" x2="319" y1="547.8164" y2="547.8164"/><line style="stroke:#A80036;stroke-width:1.5;" x1="319" x2="319" y1="547.8164" y2="569.8164"/><polygon fill="#A80036" points="315,559.8164,319,569.8164,323,559.8164,319,563.8164" style="stroke:#A80036;stroke-width:1.0;"/><line style="stroke:#A80036;stroke-width:1.5;" x1="409.25" x2="425.5" y1="547.8164" y2="547.8164"/><line style="stroke:#A80036;stroke-width:1.5;" x1="425.5" x2="425.5" y1="547.8164" y2="569.8164"/><polygon fill="#A80036" points="421.5,559.8164,425.5,569.8164,429.5,559.8164,425.5,563.8164" style="stroke:#A80036;stroke-width:1.0;"/><line style="stroke:#A80036;stroke-width:1.5;" x1="319" x2="319" y1="602.7715" y2="819.1592"/><line style="stroke:#A80036;stroke-width:1.5;" x1="319" x2="360.25" y1="819.1592" y2="819.1592"/><polygon fill="#A80036" points="350.25,815.1592,360.25,819.1592,350.25,823.1592,354.25,819.1592" style="stroke:#A80036;stroke-width:1.0;"/><line style="stroke:#A80036;stroke-width:1.5;" x1="425.5" x2="425.5" y1="801.1592" y2="819.1592"/><line style="stroke:#A80036;stroke-width:1.5;" x1="425.5" x2="384.25" y1="819.1592" y2="819.1592"/><polygon fill="#A80036" points="394.25,815.1592,384.25,819.1592,394.25,823.1592,390.25,819.1592" style="stroke:#A80036;stroke-width:1.0;"/><line style="stroke:#A80036;stroke-width:1.5;" x1="372.25" x2="372.25" y1="515.8164" y2="535.8164"/><polygon fill="#A80036" points="368.25,525.8164,372.25,535.8164,376.25,525.8164,372.25,529.8164" style="stroke:#A80036;stroke-width:1.0;"/><line style="stroke:#A80036;stroke-width:1.5;" x1="253.375" x2="208.5" y1="460.8613" y2="460.8613"/><line style="stroke:#A80036;stroke-width:1.5;" x1="208.5" x2="208.5" y1="460.8613" y2="482.8613"/><polygon fill="#A80036" points="204.5,472.8613,208.5,482.8613,212.5,472.8613,208.5,476.8613" style="stroke:#A80036;stroke-width:1.0;"/><line style="stroke:#A80036;stroke-width:1.5;" x1="327.375" x2="372.25" y1="460.8613" y2="460.8613"/><line style="stroke:#A80036;stroke-width:1.5;" x1="372.25" x2="372.25" y1="460.8613" y2="482.8613"/><polygon fill="#A80036" points="368.25,472.8613,372.25,482.8613,376.25,472.8613,372.25,476.8613" style="stroke:#A80036;stroke-width:1.0;"/><line style="stroke:#A80036;stroke-width:1.5;" x1="208.5" x2="208.5" y1="515.8164" y2="849.1592"/><line style="stroke:#A80036;stroke-width:1.5;" x1="208.5" x2="278.375" y1="849.1592" y2="849.1592"/><polygon fill="#A80036" points="268.375,845.1592,278.375,849.1592,268.375,853.1592,272.375,849.1592" style="stroke:#A80036;stroke-width:1.0;"/><line style="stroke:#A80036;stroke-width:1.5;" x1="372.25" x2="372.25" y1="831.1592" y2="849.1592"/><line style="stroke:#A80036;stroke-width:1.5;" x1="372.25" x2="302.375" y1="849.1592" y2="849.1592"/><polygon fill="#A80036" points="312.375,845.1592,302.375,849.1592,312.375,853.1592,308.375,849.1592" style="stroke:#A80036;stroke-width:1.0;"/><line style="stroke:#A80036;stroke-width:1.5;" x1="290.375" x2="290.375" y1="428.8613" y2="448.8613"/><polygon fill="#A80036" points="286.375,438.8613,290.375,448.8613,294.375,438.8613,290.375,442.8613" style="stroke:#A80036;stroke-width:1.0;"/><line style="stroke:#A80036;stroke-width:1.5;" x1="143.4375" x2="81.5" y1="320.9512" y2="320.9512"/><line style="stroke:#A80036;stroke-width:1.5;" x1="81.5" x2="81.5" y1="320.9512" y2="342.9512"/><polygon fill="#A80036" points="77.5,332.9512,81.5,342.9512,85.5,332.9512,81.5,336.9512" style="stroke:#A80036;stroke-width:1.0;"/><line style="stroke:#A80036;stroke-width:1.5;" x1="228.4375" x2="290.375" y1="320.9512" y2="320.9512"/><line style="stroke:#A80036;stroke-width:1.5;" x1="290.375" x2="290.375" y1="320.9512" y2="342.9512"/><polygon fill="#A80036" points="286.375,332.9512,290.375,342.9512,294.375,332.9512,290.375,336.9512" style="stroke:#A80036;stroke-width:1.0;"/><line style="stroke:#A80036;stroke-width:1.5;" x1="81.5" x2="81.5" y1="375.9063" y2="879.1592"/><line style="stroke:#A80036;stroke-width:1.5;" x1="81.5" x2="173.9375" y1="879.1592" y2="879.1592"/><polygon fill="#A80036" points="163.9375,875.1592,173.9375,879.1592,163.9375,883.1592,167.9375,879.1592" style="stroke:#A80036;stroke-width:1.0;"/><line style="stroke:#A80036;stroke-width:1.5;" x1="290.375" x2="290.375" y1="861.1592" y2="879.1592"/><line style="stroke:#A80036;stroke-width:1.5;" x1="290.375" x2="197.9375" y1="879.1592" y2="879.1592"/><polygon fill="#A80036" points="207.9375,875.1592,197.9375,879.1592,207.9375,883.1592,203.9375,879.1592" style="stroke:#A80036;stroke-width:1.0;"/><line style="stroke:#A80036;stroke-width:1.5;" x1="185.9375" x2="185.9375" y1="262.4629" y2="308.9512"/><polygon fill="#A80036" points="181.9375,298.9512,185.9375,308.9512,189.9375,298.9512,185.9375,302.9512" style="stroke:#A80036;stroke-width:1.0;"/><line style="stroke:#A80036;stroke-width:1.5;" x1="160.4375" x2="140.4375" y1="935.1592" y2="935.1592"/><line style="stroke:#A80036;stroke-width:1.5;" x1="140.4375" x2="140.4375" y1="935.1592" y2="957.1592"/><polygon fill="#A80036" points="136.4375,947.1592,140.4375,957.1592,144.4375,947.1592,140.4375,951.1592" style="stroke:#A80036;stroke-width:1.0;"/><line style="stroke:#A80036;stroke-width:1.5;" x1="211.4375" x2="231.4375" y1="935.1592" y2="935.1592"/><line style="stroke:#A80036;stroke-width:1.5;" x1="231.4375" x2="231.4375" y1="935.1592" y2="957.1592"/><polygon fill="#A80036" points="227.4375,947.1592,231.4375,957.1592,235.4375,947.1592,231.4375,951.1592" style="stroke:#A80036;stroke-width:1.0;"/><line style="stroke:#A80036;stroke-width:1.5;" x1="140.4375" x2="140.4375" y1="990.1143" y2="1008.1143"/><line style="stroke:#A80036;stroke-width:1.5;" x1="140.4375" x2="173.9375" y1="1008.1143" y2="1008.1143"/><polygon fill="#A80036" points="163.9375,1004.1143,173.9375,1008.1143,163.9375,1012.1143,167.9375,1008.1143" style="stroke:#A80036;stroke-width:1.0;"/><line style="stroke:#A80036;stroke-width:1.5;" x1="231.4375" x2="231.4375" y1="990.1143" y2="1008.1143"/><line style="stroke:#A80036;stroke-width:1.5;" x1="231.4375" x2="197.9375" y1="1008.1143" y2="1008.1143"/><polygon fill="#A80036" points="207.9375,1004.1143,197.9375,1008.1143,207.9375,1012.1143,203.9375,1008.1143" style="stroke:#A80036;stroke-width:1.0;"/><line style="stroke:#A80036;stroke-width:1.5;" x1="185.9375" x2="185.9375" y1="891.1592" y2="923.1592"/><polygon fill="#A80036" points="181.9375,913.1592,185.9375,923.1592,189.9375,913.1592,185.9375,917.1592" style="stroke:#A80036;stroke-width:1.0;"/><line style="stroke:#A80036;stroke-width:1.5;" x1="185.9375" x2="185.9375" y1="51.1992" y2="97.6875"/><polygon fill="#A80036" points="181.9375,87.6875,185.9375,97.6875,189.9375,87.6875,185.9375,91.6875" style="stroke:#A80036;stroke-width:1.0;"/><line style="stroke:#A80036;stroke-width:1.5;" x1="185.9375" x2="185.9375" y1="1124.5127" y2="1144.5127"/><polygon fill="#A80036" points="181.9375,1134.5127,185.9375,1144.5127,189.9375,1134.5127,185.9375,1138.5127" style="stroke:#A80036;stroke-width:1.0;"/><line style="stroke:#A80036;stroke-width:1.5;" x1="185.9375" x2="185.9375" y1="1177.4678" y2="1197.4678"/><polygon fill="#A80036" points="181.9375,1187.4678,185.9375,1197.4678,189.9375,1187.4678,185.9375,1191.4678" style="stroke:#A80036;stroke-width:1.0;"/><line style="stroke:#A80036;stroke-width:1.5;" x1="185.9375" x2="185.9375" y1="1243.3779" y2="1263.3779"/><polygon fill="#A80036" points="181.9375,1253.3779,185.9375,1263.3779,189.9375,1253.3779,185.9375,1257.3779" style="stroke:#A80036;stroke-width:1.0;"/><line style="stroke:#A80036;stroke-width:1.5;" x1="185.9375" x2="185.9375" y1="1309.2881" y2="1329.2881"/><polygon fill="#A80036" points="181.9375,1319.2881,185.9375,1329.2881,189.9375,1319.2881,185.9375,1323.2881" style="stroke:#A80036;stroke-width:1.0;"/><line style="stroke:#A80036;stroke-width:1.5;" x1="127.9375" x2="127.9375" y1="1462.1533" y2="1482.1533"/><polygon fill="#A80036" points="123.9375,1472.1533,127.9375,1482.1533,131.9375,1472.1533,127.9375,1476.1533" style="stroke:#A80036;stroke-width:1.0;"/><line style="stroke:#A80036;stroke-width:1.5;" x1="148.9375" x2="127.9375" y1="1407.1982" y2="1407.1982"/><line style="stroke:#A80036;stroke-width:1.5;" x1="127.9375" x2="127.9375" y1="1407.1982" y2="1429.1982"/><polygon fill="#A80036" points="123.9375,1419.1982,127.9375,1429.1982,131.9375,1419.1982,127.9375,1423.1982" style="stroke:#A80036;stroke-width:1.0;"/><line style="stroke:#A80036;stroke-width:1.5;" x1="222.9375" x2="243.9375" y1="1407.1982" y2="1407.1982"/><line style="stroke:#A80036;stroke-width:1.5;" x1="243.9375" x2="243.9375" y1="1407.1982" y2="1429.1982"/><polygon fill="#A80036" points="239.9375,1419.1982,243.9375,1429.1982,247.9375,1419.1982,243.9375,1423.1982" style="stroke:#A80036;stroke-width:1.0;"/><line style="stroke:#A80036;stroke-width:1.5;" x1="127.9375" x2="127.9375" y1="1515.1084" y2="1533.1084"/><line style="stroke:#A80036;stroke-width:1.5;" x1="127.9375" x2="173.9375" y1="1533.1084" y2="1533.1084"/><polygon fill="#A80036" points="163.9375,1529.1084,173.9375,1533.1084,163.9375,1537.1084,167.9375,1533.1084" style="stroke:#A80036;stroke-width:1.0;"/><line style="stroke:#A80036;stroke-width:1.5;" x1="243.9375" x2="243.9375" y1="1462.1533" y2="1533.1084"/><line style="stroke:#A80036;stroke-width:1.5;" x1="243.9375" x2="197.9375" y1="1533.1084" y2="1533.1084"/><polygon fill="#A80036" points="207.9375,1529.1084,197.9375,1533.1084,207.9375,1537.1084,203.9375,1533.1084" style="stroke:#A80036;stroke-width:1.0;"/><line style="stroke:#A80036;stroke-width:1.5;" x1="185.9375" x2="185.9375" y1="1375.1982" y2="1395.1982"/><polygon fill="#A80036" points="181.9375,1385.1982,185.9375,1395.1982,189.9375,1385.1982,185.9375,1389.1982" style="stroke:#A80036;stroke-width:1.0;"/><line style="stroke:#A80036;stroke-width:1.5;" x1="185.9375" x2="185.9375" y1="1020.1143" y2="1078.6025"/><polygon fill="#A80036" points="181.9375,1068.6025,185.9375,1078.6025,189.9375,1068.6025,185.9375,1072.6025" style="stroke:#A80036;stroke-width:1.0;"/><line style="stroke:#A80036;stroke-width:1.5;" x1="185.9375" x2="185.9375" y1="1636.5518" y2="1656.5518"/><polygon fill="#A80036" points="181.9375,1646.5518,185.9375,1656.5518,189.9375,1646.5518,185.9375,1650.5518" style="stroke:#A80036;stroke-width:1.0;"/><line style="stroke:#A80036;stroke-width:1.5;" x1="185.9375" x2="185.9375" y1="1689.5068" y2="1709.5068"/><polygon fill="#A80036" points="181.9375,1699.5068,185.9375,1709.5068,189.9375,1699.5068,185.9375,1703.5068" style="stroke:#A80036;stroke-width:1.0;"/><line style="stroke:#A80036;stroke-width:1.5;" x1="185.9375" x2="185.9375" y1="1742.4619" y2="1762.4619"/><polygon fill="#A80036" points="181.9375,1752.4619,185.9375,1762.4619,189.9375,1752.4619,185.9375,1756.4619" style="stroke:#A80036;stroke-width:1.0;"/><line style="stroke:#A80036;stroke-width:1.5;" x1="185.9375" x2="185.9375" y1="1795.417" y2="1815.417"/><polygon fill="#A80036" points="181.9375,1805.417,185.9375,1815.417,189.9375,1805.417,185.9375,1809.417" style="stroke:#A80036;stroke-width:1.0;"/><line style="stroke:#A80036;stroke-width:1.5;" x1="185.9375" x2="185.9375" y1="1848.3721" y2="1869.8604"/><polygon fill="#A80036" points="181.9375,1859.8604,185.9375,1869.8604,189.9375,1859.8604,185.9375,1863.8604" style="stroke:#A80036;stroke-width:1.0;"/><line style="stroke:#A80036;stroke-width:1.5;" x1="185.9375" x2="185.9375" y1="1545.1084" y2="1603.5967"/><polygon fill="#A80036" points="181.9375,1593.5967,185.9375,1603.5967,189.9375,1593.5967,185.9375,1597.5967" style="stroke:#A80036;stroke-width:1.0;"/><line style="stroke:#A80036;stroke-width:1.5;" x1="185.9375" x2="185.9375" y1="1902.8154" y2="1960.9248"/><polygon fill="#A80036" points="181.9375,1950.9248,185.9375,1960.9248,189.9375,1950.9248,185.9375,1954.9248" style="stroke:#A80036;stroke-width:1.0;"/><!--MD5=[0948f0f1d5d2830b6e261acd5ba2f9bc]
@startuml
title SET 和 GET 方法对比流程图

skinparam activity {
    BackgroundColor #F5F5F5
    BorderColor #333333
    FontColor #000000
    FontSize 11
}

skinparam note {
    BackgroundColor #FFF9C4
    BorderColor #FFC107
}

start

partition "SET 方法流程 (设置命令)" #E1F5FF {
    :调用 SET 方法\nset_xxx(...);
    :发送命令\n_send_packet(CMD_SET_XXX, ...);
    :调用 _wait_for_ack_with_recovery();
    
    partition "_wait_for_ack_with_recovery" {
        if (ACK已到达?) then (是)
            :清除并返回成功;
        else (否)
            :清除事件;
            :等待 0.001秒;
            if (残留ACK?) then (是)
                :清除并返回成功;
            else (否)
                :等待新ACK;
                if (收到ACK?) then (是)
                    :返回成功;
                else (否)
                    :失败计数++;
                    if (连续失败>=5?) then (是)
                        :触发MCU恢复;
                    endif
                    :返回失败;
                endif
            endif
        endif
    }
    
    if (成功?) then (是)
        :返回 True;
    else (否)
        :返回 False;
    endif
}

partition "GET 方法流程 (查询命令)" #E8F5E9 {
    :调用 GET 方法\nget_xxx(...);
    :获取 ack_event;
    :清除事件\nack_event.clear();
    :发送命令\n_send_packet(CMD_GET_XXX, ...);
    :等待 ACK\nack_event.wait(timeout);
    
    if (收到ACK?) then (是)
        :从缓存字典读取数据;
        :返回数据;
    else (否)
        :返回 None;
    endif
}

partition "后台数据接收 (_uart_recv_task)" #FFF3E0 {
    :持续监听串口;
    :接收数据包;
    :解析协议帧;
    :调用对应的 _handle_xxx();
    :更新缓存字典;
    :设置 ack_event;
    note right: 后台线程持续运行\n接收 MCU 返回的数据\n并更新到缓存字典
}

stop

note right
**关键区别:**
1. SET 方法使用 _wait_for_ack_with_recovery，包含错误恢复机制
2. GET 方法先清除事件再发送，确保等待新的 ACK
3. 数据由后台线程接收并更新到缓存字典，GET 方法从缓存读取
end note

@enduml

PlantUML version 1.2021.00(Sun Jan 10 18:25:05 CST 2021)
(MIT source distribution)
Java Runtime: Java(TM) SE Runtime Environment
JVM: Java HotSpot(TM) 64-Bit Server VM
Default Encoding: UTF-8
Language: zh
Country: CN
--></g></svg>